<!--?xml version="1.0" standalone="no"?-->
<svg id="sw-js-blob-svg" viewBox="0 0 100 100" xmlns="http://www.w3.org/2000/svg" version="1.1">
  <defs>
    <linearGradient id="sw-gradient" x1="0" x2="1" y1="1" y2="0">
      <stop id="stop1" stop-color="rgba(255, 21.755, 13.047, 0.87)" offset="0%"></stop>
      <stop id="stop2" stop-color="rgba(255, 190.575, 0, 1)" offset="100%"></stop>
    </linearGradient>
  </defs>
  <path fill="url(#sw-gradient)" d="M24.4,-35.9C31.4,-33.4,36.9,-26.3,40.3,-18.5C43.7,-10.7,45,-2,43,5.6C41,13.2,35.6,19.7,29.6,24.3C23.6,29,16.8,31.8,11.4,28.8C6,25.7,1.8,16.9,-1.9,13C-5.7,9,-8.9,9.8,-13.7,9.2C-18.4,8.5,-24.5,6.5,-27.4,2.5C-30.3,-1.5,-29.8,-7.5,-27.4,-12.4C-25,-17.4,-20.7,-21.5,-15.8,-25C-10.9,-28.5,-5.5,-31.6,1.6,-34C8.7,-36.5,17.3,-38.4,24.4,-35.9Z" width="100%" height="100%" transform="translate(50 50)" stroke-width="0" style="transition: 0.3s;" stroke="url(#sw-gradient)"></path>
</svg>