<?xml version="1.0" standalone="no"?>
<svg xmlns:xlink="http://www.w3.org/1999/xlink" id="wave" style="transform:rotate(0deg); transition: 0.3s" viewBox="0 0 1440 140" version="1.1" xmlns="http://www.w3.org/2000/svg"><defs><linearGradient id="sw-gradient-0" x1="0" x2="0" y1="1" y2="0"><stop stop-color="rgba(255, 252.208, 251.311, 1)" offset="0%"/><stop stop-color="rgba(212.061, 212.061, 212.061, 1)" offset="100%"/></linearGradient></defs><path style="transform:translate(0, 0px); opacity:1" fill="url(#sw-gradient-0)" d="M0,112L21.8,98C43.6,84,87,56,131,58.3C174.5,61,218,93,262,93.3C305.5,93,349,61,393,58.3C436.4,56,480,84,524,91C567.3,98,611,84,655,72.3C698.2,61,742,51,785,46.7C829.1,42,873,42,916,44.3C960,47,1004,51,1047,56C1090.9,61,1135,65,1178,72.3C1221.8,79,1265,89,1309,79.3C1352.7,70,1396,42,1440,35C1483.6,28,1527,42,1571,44.3C1614.5,47,1658,37,1702,37.3C1745.5,37,1789,47,1833,56C1876.4,65,1920,75,1964,84C2007.3,93,2051,103,2095,88.7C2138.2,75,2182,37,2225,37.3C2269.1,37,2313,75,2356,84C2400,93,2444,75,2487,72.3C2530.9,70,2575,84,2618,86.3C2661.8,89,2705,79,2749,84C2792.7,89,2836,107,2880,98C2923.6,89,2967,51,3011,51.3C3054.5,51,3098,89,3120,107.3L3141.8,126L3141.8,140L3120,140C3098.2,140,3055,140,3011,140C2967.3,140,2924,140,2880,140C2836.4,140,2793,140,2749,140C2705.5,140,2662,140,2618,140C2574.5,140,2531,140,2487,140C2443.6,140,2400,140,2356,140C2312.7,140,2269,140,2225,140C2181.8,140,2138,140,2095,140C2050.9,140,2007,140,1964,140C1920,140,1876,140,1833,140C1789.1,140,1745,140,1702,140C1658.2,140,1615,140,1571,140C1527.3,140,1484,140,1440,140C1396.4,140,1353,140,1309,140C1265.5,140,1222,140,1178,140C1134.5,140,1091,140,1047,140C1003.6,140,960,140,916,140C872.7,140,829,140,785,140C741.8,140,698,140,655,140C610.9,140,567,140,524,140C480,140,436,140,393,140C349.1,140,305,140,262,140C218.2,140,175,140,131,140C87.3,140,44,140,22,140L0,140Z"/></svg>